<svg xmlns="http://www.w3.org/2000/svg" xmlns:xlink="http://www.w3.org/1999/xlink" version="1.1" style="" xml:space="preserve" width="216" height="432"><rect id="backgroundrect" width="100%" height="100%" x="0" y="0" fill="none" stroke="none" class="" style=""/>
















<g class="currentLayer" style=""><title>Layer 1</title><g class="selected" fill="#009899" fill-opacity="1" id="svg_19">
	<g id="svg_21" fill="#009899" fill-opacity="1">
		<path d="M153.49978434160965,316.7227265753472 L73.83430461473222,272.8547106806062 C70.47467210773829,270.71678458492244 66.2157583756167,270.5408996863738 62.68068300570303,272.4025273778583 C59.09950745636715,274.288882163882 56.87468220965326,277.94354673678134 56.87468220965326,281.9411653600291 v88.44602193007823 c0,3.997618623247844 2.2248252467138916,7.652498214360521 5.805782311787121,9.538422963957487 c3.516941176112494,1.85281194473573 7.776510361022055,1.696708721818457 11.154058577554514,-0.451753266321198 l79.66547972687744,-43.8684459311678 c3.522184798416444,-1.9394642847297523 5.625314310826139,-5.468988257439163 5.625314310826139,-9.44101971329423 C159.12531713669853,322.1921448692132 157.0221876242888,318.66240587829043 153.49978434160965,316.7227265753472 zM126.71907584549305,310.24057249643954 l-10.998279298274635,10.823801843571067 L76.78034641250207,282.74146315024694 L126.71907584549305,310.24057249643954 zM64.20351831647548,371.6024702321576 V280.7256673997656 L110.5390052896015,326.1641763250683 L64.20351831647548,371.6024702321576 zM76.78034641250207,369.58688949988965 l38.94088710324171,-38.322911189763694 l10.998279298274635,10.823801843571067 L76.78034641250207,369.58688949988965 zM149.92144908768842,329.31139791437977 l-16.556518940462738,9.11698726572353 l-12.461905373864965,-12.263993836821605 l12.461686889602303,-12.263993836821605 l16.55630045620007,9.116772247510147 c1.6923790986002007,0.9321039550225585 1.875250426450494,2.5114127323329827 1.875250426450494,3.147221589311462 C151.79626254561362,326.8002002002602 151.6138281862886,328.3792939593572 149.92144908768842,329.31139791437977 z" id="svg_3" fill="#009899" fill-opacity="1"/>
	</g>
</g><g class="" fill="#919191" fill-opacity="1" id="svg_23">
	<g id="svg_25" fill="#919191" fill-opacity="1">
		<path d="M153.4997805269124,100.50651084563381 L73.83430080003495,56.63849495089281 C70.474668293041,54.50056885520901 66.21575456091944,54.324683956660344 62.68067919100578,56.18631164814486 C59.099503641669884,58.0726664341686 56.874678394955986,61.72733100706789 56.874678394955986,65.72494963031569 v88.44602193007823 c0,3.997618623247844 2.2248252467138916,7.652498214360521 5.805782311787121,9.538422963957487 c3.516941176112494,1.85281194473573 7.776510361022055,1.696708721818457 11.154058577554514,-0.45175326632119894 l79.66547972687744,-43.8684459311678 c3.522184798416444,-1.9394642847297523 5.625314310826139,-5.468988257439163 5.625314310826139,-9.44101971329423 C159.12531332200126,105.97592913949978 157.02218380959152,102.446190148577 153.4997805269124,100.50651084563381 zM126.71907203079579,94.02435676672607 l-10.998279298274635,10.823801843571067 L76.78034259780479,66.52524742053349 L126.71907203079579,94.02435676672607 zM64.20351450177823,155.38625450244416 V64.50945167005217 L110.53900147490423,109.94796059535486 L64.20351450177823,155.38625450244416 zM76.78034259780479,153.3706737701762 l38.94088710324171,-38.322911189763694 l10.998279298274635,10.823801843571067 L76.78034259780479,153.3706737701762 zM149.92144527299115,113.09518218466633 l-16.556518940462738,9.11698726572353 l-12.461905373864965,-12.263993836821605 l12.461686889602303,-12.263993836821605 l16.55630045620007,9.116772247510147 c1.6923790986001976,0.9321039550225589 1.87525042645049,2.5114127323329827 1.87525042645049,3.147221589311462 C151.79625873091635,110.58398447054671 151.61382437159133,112.16307822964377 149.92144527299115,113.09518218466633 z" id="svg_3" fill="#919191" fill-opacity="1"/>
	</g>
</g><g id="svg_4">
</g><g id="svg_5">
</g><g id="svg_6">
</g><g id="svg_7">
</g><g id="svg_8">
</g><g id="svg_9">
</g><g id="svg_10">
</g><g id="svg_11">
</g><g id="svg_12">
</g><g id="svg_13">
</g><g id="svg_14">
</g><g id="svg_15">
</g><g id="svg_16">
</g><g id="svg_17">
</g><g id="svg_18">
</g></g></svg>